<svg width="303" height="52" viewBox="0 0 303 52" fill="none" xmlns="http://www.w3.org/2000/svg">
<g clip-path="url(#clip0_12_8)">
<path d="M-0.000488281 26.2364C-0.000488281 11.8182 7.69105 3.07275 20.2772 3.07275C29.8334 3.07275 37.5249 8.98184 38.9234 17.7273C39.1564 18.6728 38.4572 19.3818 37.5249 19.3818H31.4649C30.7657 19.3818 30.2995 18.9091 30.0664 18.2C28.901 13.7091 25.1718 10.8728 20.2772 10.8728C13.518 10.8728 9.32259 16.7818 9.32259 26.2364C9.32259 35.6909 13.518 41.6 20.5103 41.6C25.4049 41.6 28.901 39 30.2995 34.7455C30.5326 34.0364 30.9987 33.5637 31.698 33.5637H37.758C38.6903 33.5637 39.3895 34.5091 39.1564 35.2182C37.758 43.7273 30.2995 49.4 20.5103 49.4C7.69105 49.4 -0.000488281 40.4182 -0.000488281 26.2364Z" fill="#1E212C"/>
<path d="M56.6364 48.2188H49.8772C49.1779 48.2188 48.7118 47.7461 48.7118 47.037V6.14609C48.7118 5.20063 49.6441 4.25518 50.5764 4.25518H66.8918C76.4479 4.25518 82.2748 9.69154 82.2748 18.2006C82.2748 23.1643 79.9441 27.6552 75.9818 30.0188C75.0495 30.4915 74.8164 31.6734 75.2825 32.3824L82.5079 46.3279C82.9741 47.037 82.2749 47.9825 81.5756 47.9825H73.8841C73.4179 47.9825 72.9518 47.7461 72.7187 47.2734L65.9595 33.0915C65.7264 32.3824 65.0272 32.1461 64.3279 32.1461H58.9672C58.2679 32.1461 57.8018 32.6188 57.8018 33.3279V47.2734C58.0349 47.7461 57.3356 48.2188 56.6364 48.2188ZM58.0349 24.1097C58.0349 24.8188 58.501 25.2915 59.2002 25.2915H66.1925C70.8541 25.2915 73.4179 22.6915 73.4179 18.437C73.4179 14.1825 70.621 11.5825 66.1925 11.5825H59.4333C58.7341 11.5825 58.2679 12.0552 58.2679 12.7643V24.1097H58.0349Z" fill="#1E212C"/>
<path d="M120.034 48.2188H94.3952C93.4629 48.2188 92.7637 47.5097 92.7637 46.5643V5.90972C92.7637 4.96427 93.4629 4.25518 94.3952 4.25518H120.034C120.966 4.25518 121.665 4.96427 121.665 5.90972V10.4006C121.665 11.3461 120.966 12.0552 120.034 12.0552H103.019C102.32 12.0552 101.854 12.5279 101.854 13.237V21.2734C101.854 21.9824 102.32 22.4552 103.019 22.4552H118.868C119.801 22.4552 120.5 23.1643 120.5 24.1097V28.1279C120.5 29.0734 119.801 29.7825 118.868 29.7825H103.019C102.32 29.7825 101.854 30.2552 101.854 30.9643V39.9461C101.854 40.6552 102.32 41.1279 103.019 41.1279H120.034C120.966 41.1279 121.665 41.837 121.665 42.7824V47.2734C121.665 47.5097 120.966 48.2188 120.034 48.2188Z" fill="#1E212C"/>
<path d="M156.161 37.5824H142.875C142.176 37.5824 141.71 38.0552 141.477 38.5279L138.913 47.2734C138.68 47.9825 138.214 48.2188 137.515 48.2188H131.455C130.522 48.2188 129.823 47.2734 130.056 46.3279L144.041 5.20063C144.274 4.72791 144.74 4.25518 145.439 4.25518H154.063C154.762 4.25518 155.229 4.72791 155.462 5.20063L169.446 46.3279C169.679 47.2734 168.98 48.2188 168.048 48.2188H161.289C160.589 48.2188 160.123 47.7461 159.89 47.2734L157.326 38.5279C157.326 38.0552 156.627 37.5824 156.161 37.5824ZM144.74 30.7279H154.296C154.762 30.7279 154.995 30.2552 154.995 29.7825L149.868 13.237H149.402L144.274 29.7825C144.041 30.2552 144.274 30.7279 144.74 30.7279Z" fill="#1E212C"/>
<path d="M184.131 46.5652V13.0016C184.131 12.2925 183.664 11.8197 182.965 11.8197H172.71C171.777 11.8197 170.845 11.1106 170.845 9.92883V5.91064C170.845 4.96519 171.544 4.01974 172.71 4.01974H204.408C205.34 4.01974 206.273 4.72883 206.273 5.91064V9.92883C206.273 10.8743 205.574 11.8197 204.408 11.8197H194.153C193.454 11.8197 192.987 12.2925 192.987 13.0016V46.8016C192.987 47.747 192.288 48.4561 191.356 48.4561H185.529C184.83 48.2197 184.131 47.5106 184.131 46.5652Z" fill="#1E212C"/>
<path d="M241.933 48.2188H216.295C215.362 48.2188 214.663 47.5097 214.663 46.5643V5.90972C214.663 4.96427 215.362 4.25518 216.295 4.25518H241.933C242.865 4.25518 243.565 4.96427 243.565 5.90972V10.4006C243.565 11.3461 242.865 12.0552 241.933 12.0552H224.918C224.219 12.0552 223.753 12.5279 223.753 13.237V21.2734C223.753 21.9824 224.219 22.4552 224.918 22.4552H240.768C241.7 22.4552 242.399 23.1643 242.399 24.1097V28.1279C242.399 29.0734 241.7 29.7825 240.768 29.7825H224.918C224.219 29.7825 223.753 30.2552 223.753 30.9643V39.9461C223.753 40.6552 224.219 41.1279 224.918 41.1279H241.933C242.865 41.1279 243.565 41.837 243.565 42.7824V47.2734C243.565 47.5097 242.865 48.2188 241.933 48.2188Z" fill="#1E212C"/>
<path d="M274.331 22.9284L259.88 3.78293C258.948 2.83747 257.783 2.36475 256.617 2.36475C255.452 2.36475 254.287 2.83747 253.354 3.78293C251.723 5.67384 251.723 8.5102 253.354 10.4011L264.775 26.0011L253.354 41.6011C251.723 43.492 251.723 46.3284 253.354 48.2193C254.287 49.1647 255.452 49.6375 256.617 49.6375C257.783 49.6375 258.948 49.1647 259.88 48.2193L274.331 29.0738C275.963 27.6557 275.963 24.8193 274.331 22.9284Z" fill="#FF3F3A"/>
<path d="M280.491 22.9284L294.942 3.78293C295.874 2.83747 297.039 2.36475 298.205 2.36475C299.37 2.36475 300.536 2.83747 301.468 3.78293C303.099 5.67384 303.099 8.5102 301.468 10.4011L290.047 26.0011L301.468 41.6011C303.099 43.492 303.099 46.3284 301.468 48.2193C300.536 49.1647 299.37 49.6375 298.205 49.6375C297.039 49.6375 295.874 49.1647 294.942 48.2193L280.491 29.0738C278.859 27.6557 278.859 24.8193 280.491 22.9284Z" fill="#FF3F3A"/>
</g>
<defs>
<clipPath id="clip0_12_8">
<rect width="303" height="52" fill="white"/>
</clipPath>
</defs>
</svg>
