<svg width="305" height="69" viewBox="0 0 305 69" fill="none" xmlns="http://www.w3.org/2000/svg">
<path d="M4.78807 11.8205V25.6527C4.78807 27.9218 4.78807 30.4704 0 30.4704V34.2076V34.2581V37.9016C4.78807 37.9016 4.78807 40.4488 4.78807 42.7193V56.5501C4.78807 67.2848 10.7705 68.0642 20.9431 68.0642V59.7153C16.155 59.7153 14.3612 59.0223 14.3612 56.3441V42.6487C14.3612 39.4864 14.582 36.1828 11.7741 34.1846C14.582 32.1892 14.3612 28.8857 14.3612 25.7204V12.028C14.3612 9.35259 16.1565 8.65673 20.9431 8.65673V0.306398C10.7705 0.30496 4.78807 1.08438 4.78807 11.8205ZM31.7076 11.3725C29.092 13.545 27.7849 16.6656 27.7849 20.7313V24.3835H22.3208V32.0149H27.7849V59.6707H39.6582V32.0149H47.0138V24.3835H39.6582V21.7787C39.6582 20.4532 40.0548 19.4318 40.8481 18.7143C41.6413 17.9968 42.7756 17.6395 44.2464 17.6395C44.9691 17.6395 48.6604 17.651 48.6604 17.651V8.79503C48.6604 8.79503 42.0695 8.72444 41.1275 8.72444C38.261 8.72444 34.3232 9.19699 31.7076 11.3725ZM53.8827 17.6194H65.7574V8.79503H53.8827V17.6194ZM53.8827 59.6721H65.7574V24.3835H53.8827V59.6721ZM95.0387 23.7308C92.7971 23.7308 90.7644 24.2264 88.9436 25.2147C87.1227 26.2031 85.5933 27.5804 84.3553 29.3395L83.9001 24.3835H72.796V59.6707H84.6002V34.2998C85.2072 33.6472 85.9373 33.1329 86.7892 32.7669C87.641 32.401 88.616 32.2123 89.7143 32.2123C91.466 32.2123 92.7911 32.6315 93.6896 33.4671C94.588 34.3056 95.0387 35.7319 95.0387 37.7561V59.6735H106.877V37.7892C106.877 32.8966 105.832 29.3308 103.743 27.0905C101.654 24.8502 98.7511 23.7308 95.0387 23.7308ZM142.682 42.2727C140.452 40.5885 137.024 39.3193 132.401 38.4721C129.46 37.9535 127.502 37.3628 126.534 36.7101C125.565 36.0604 125.08 35.2637 125.08 34.3301C125.08 33.3504 125.501 32.5508 126.341 31.9183C127.18 31.2873 128.22 30.9704 129.458 30.9704C131.139 30.9704 132.359 31.3305 133.118 32.048C133.877 32.7655 134.257 33.8201 134.257 35.2104H145.745L145.816 35.0159C145.957 31.685 144.533 28.9779 141.543 26.8788C138.553 24.7797 134.536 23.7294 129.493 23.7294C124.705 23.7294 120.911 24.8128 118.108 26.9767C115.306 29.1407 113.906 31.7743 113.906 34.8819C113.906 37.8166 115.026 40.1347 117.268 41.829C119.509 43.5261 122.837 44.7752 127.251 45.5806C130.053 46.1237 131.985 46.7374 133.047 47.4218C134.111 48.1076 134.641 48.887 134.641 49.7514C134.641 50.8175 134.233 51.6416 133.415 52.2136C132.598 52.7898 131.396 53.0823 129.808 53.0823C127.894 53.0823 126.416 52.7092 125.378 51.9715C124.338 51.2339 123.796 50.0266 123.749 48.3525H113.031L112.962 48.547C112.822 51.5494 114.251 54.268 117.253 56.7014C120.253 59.1376 124.333 60.3535 129.494 60.3535C134.469 60.3535 138.466 59.3263 141.491 57.2704C144.516 55.216 146.028 52.604 146.028 49.4272C146.028 46.3427 144.912 43.9569 142.682 42.2727ZM184.945 44.8328H184.735L178.502 24.3863H171.039L164.875 44.9985H164.665L160.497 24.3863H149.569L158.5 59.6735H168.485L174.683 40.9545H174.893L181.059 59.6735H191.076L199.974 24.3863H189.045L184.945 44.8328ZM220.074 23.7306C214.446 23.7092 210.118 25.4006 207.095 28.8035C204.067 32.2051 202.556 36.592 202.556 41.9615V43.202C202.556 48.1148 204.221 52.2035 207.546 55.4652C210.873 58.7284 215.329 60.3579 220.911 60.3579C223.923 60.3579 226.743 59.9833 229.37 59.2327C231.997 58.4835 234.141 57.5442 235.796 56.4132L232.996 49.6938C230.94 50.5006 229.241 51.0639 227.898 51.3909C226.554 51.7194 224.761 51.8822 222.52 51.8822C220.301 51.8822 218.528 51.3002 217.197 50.1375C215.864 48.9705 215.072 47.488 214.814 45.6843L214.886 45.4869H236.531V39.7111C236.531 34.7983 235.071 30.907 232.153 28.0357C229.238 25.1658 225.209 23.7306 220.074 23.7306ZM224.978 38.6047H214.784L214.679 38.4433C214.867 36.5502 215.386 35.0389 216.24 33.908C217.09 32.7799 218.37 32.2137 220.075 32.2137C221.756 32.2137 222.991 32.692 223.789 33.6486C224.582 34.6053 224.981 35.9754 224.981 37.7575L224.978 38.6047ZM259.803 23.7306C254.175 23.7092 249.849 25.4006 246.824 28.8035C243.801 32.2051 242.286 36.592 242.286 41.9615V43.202C242.286 48.1148 243.951 52.2035 247.279 55.4652C250.608 58.7284 255.06 60.3579 260.641 60.3579C263.655 60.3579 266.475 59.9833 269.104 59.2327C271.73 58.4835 273.872 57.5442 275.529 56.4132L272.728 49.6938C270.672 50.5006 268.975 51.0639 267.63 51.3909C266.284 51.7194 264.494 51.8822 262.251 51.8822C260.034 51.8822 258.261 51.3002 256.929 50.1375C255.596 48.9705 254.804 47.488 254.546 45.6843L254.616 45.4869H276.263V39.7111C276.263 34.7983 274.802 30.907 271.885 28.0357C268.966 25.1658 264.941 23.7306 259.803 23.7306ZM264.705 38.6047H254.514L254.409 38.4433C254.597 36.5502 255.117 35.0389 255.967 33.908C256.817 32.7799 258.097 32.2137 259.803 32.2137C261.484 32.2137 262.722 32.692 263.518 33.6486C264.314 34.6053 264.709 35.9754 264.709 37.7575V38.6061H264.705V38.6047ZM300.586 50.5193C299.115 50.5193 297.981 50.162 297.188 49.4445C296.394 48.7271 295.996 47.7027 295.996 46.3773V32.0768H302.156V24.4425H295.996V8.73885H284.123V24.4425H278.657V32.0768H284.123V47.4247C284.123 51.4903 285.43 54.6109 288.044 56.7864C290.658 58.9633 294.595 59.4344 297.466 59.4344C298.409 59.4344 305 59.3638 305 59.3638V50.5078C305 50.5078 301.312 50.5193 300.586 50.5193Z" fill="#1E1B1B"/>
</svg>
